Coordinates
version=1
nRows=29
nColumns=22
inDegrees=yes

Units are S.I. units (second, meters, Newtons, ...)
If the header above contains a line with 'inDegrees', this indicates whether rotational values are in degrees (yes) or radians (no).

endheader
time	pelvis_tilt	pelvis_list	pelvis_rotation	pelvis_tx	pelvis_ty	pelvis_tz	hip_flexion_r	hip_adduction_r	hip_rotation_r	knee_angle_r	ankle_angle_r	subtalar_angle_r	hip_flexion_l	hip_adduction_l	hip_rotation_l	knee_angle_l	ankle_angle_l	subtalar_angle_l	lumbar_extension	lumbar_bending	lumbar_rotation
      1.50000000	     -7.60223455	      3.79681994	    -10.88035465	     -0.98086001	      0.86903653	     -0.22427039	     23.72364892	    -13.04582001	      9.02920356	    -41.72953216	     11.58986549	     11.35198642	      2.59676052	      2.76987807	     -6.87833034	    -10.39586150	     21.54036275	      1.57976139	      0.19851704	     -4.20297732	     12.23972143
      1.51000000	     -7.18459290	      3.71393409	    -10.84970103	     -0.97860715	      0.86905043	     -0.22583364	     25.20690234	    -12.76079679	      9.77533902	    -45.04705482	     10.10635512	     10.81743225	      1.76162345	      2.90437913	     -6.93578005	     -9.97311916	     21.70696444	      1.90728102	     -0.38786972	     -4.23229765	     11.95408258
      1.52000000	     -6.74704102	      3.61040974	    -10.79743212	     -0.97610087	      0.86910322	     -0.22723942	     26.61169090	    -12.42668103	     10.44505370	    -48.19894395	      8.71838537	     10.16692630	      0.83472204	      3.01639767	     -6.96676595	     -9.45605904	     21.84868683	      2.17110603	     -0.98999100	     -4.25281007	     11.63089325
      1.53000000	     -6.34448590	      3.45600808	    -10.65429689	     -0.97340088	      0.86917379	     -0.22861534	     27.93765485	    -12.04805246	     10.92743856	    -51.09348201	      7.45868897	      9.12186656	     -0.05623520	      3.05464323	     -6.95458100	     -8.97352736	     21.95830558	      2.52223686	     -1.57086893	     -4.20702905	     11.16908289
      1.54000000	     -5.98096218	      3.27804283	    -10.44888956	     -0.97045034	      0.86923162	     -0.22990047	     29.19157004	    -11.66249214	     11.23391357	    -53.69681840	      6.48445024	      8.01606378	     -0.92685635	      3.04813405	     -6.88989598	     -8.48471386	     22.03765354	      2.84981092	     -2.09940814	     -4.13259331	     10.63427545
      1.55000000	     -5.66644717	      3.10211040	    -10.17935885	     -0.96731611	      0.86925772	     -0.23117145	     30.38676861	    -11.30875370	     11.38418872	    -55.96653795	      5.86739830	      6.92839094	     -1.73478572	      3.02514280	     -6.73874494	     -8.03279221	     22.10514511	      3.14206126	     -2.57457308	     -4.04246602	     10.01826694
      1.56000000	     -5.41870295	      2.90385200	     -9.83398524	     -0.96398616	      0.86926190	     -0.23243024	     31.51601688	    -10.98988976	     11.31718274	    -57.85072335	      5.57561947	      5.82539675	     -2.44854681	      2.95034707	     -6.52830221	     -7.64531033	     22.16080058	      3.39265543	     -2.97518684	     -3.90902591	      9.33302249
      1.57000000	     -5.23565121	      2.69922133	     -9.42830876	     -0.96051533	      0.86925186	     -0.23370172	     32.58391776	    -10.72221275	     11.07591642	    -59.32222755	      5.57442714	      4.83653206	     -3.05398042	      2.84523837	     -6.24786130	     -7.34224885	     22.20476300	      3.57399832	     -3.30734411	     -3.74476296	      8.58683481
      1.58000000	     -5.11666547	      2.47304245	     -8.97270245	     -0.95695149	      0.86925012	     -0.23497265	     33.58011435	    -10.48276597	     10.68859572	    -60.35132098	      5.73844781	      3.99512649	     -3.54398342	      2.69291294	     -5.89404959	     -7.13521779	     22.23652708	      3.68442568	     -3.58024325	     -3.53572838	      7.80151493
      1.59000000	     -5.05329029	      2.21728949	     -8.47725486	     -0.95328566	      0.86926936	     -0.23623790	     34.48792547	    -10.26685277	     10.16609699	    -60.92324025	      6.01142422	      3.32768294	     -3.93089324	      2.48882651	     -5.49107394	     -7.01983883	     22.27081857	      3.72941485	     -3.80359749	     -3.27659304	      6.99651988
      1.60000000	     -5.02675037	      1.93384973	     -7.95139233	     -0.94954795	      0.86932740	     -0.23749773	     35.28995675	    -10.07162081	      9.54722680	    -61.03469401	      6.26600068	      3.02378798	     -4.22216124	      2.23865958	     -5.05352917	     -7.01508872	     22.30763353	      3.73389327	     -4.00155270	     -2.97296237	      6.17312571
      1.61000000	     -5.01700469	      1.58952142	     -7.44432765	     -0.94568937	      0.86943798	     -0.23865340	     35.94997386	     -9.82429316	      8.87289268	    -60.68182496	      6.51720560	      2.59522243	     -4.47402194	      1.91396827	     -4.64196075	     -7.07506668	     22.36294741	      3.65521900	     -4.19223371	     -2.59319194	      5.41080581
      1.62000000	     -5.03370751	      1.22985523	     -6.93847420	     -0.94174008	      0.86953758	     -0.23975395	     36.50539715	     -9.57468318	      8.18817775	    -59.89887062	      6.64043417	      2.57547664	     -4.65955162	      1.56209334	     -4.21444684	     -7.21360219	     22.45266410	      3.59150980	     -4.36199262	     -2.18761516	      4.66758387
      1.63000000	     -5.03984359	      0.82177537	     -6.47076369	     -0.93765658	      0.86966683	     -0.24069391	     36.89871459	     -9.25879049	      7.52254693	    -58.68547760	      6.66133653	      2.66550819	     -4.84228839	      1.15222112	     -3.83167437	     -7.40573705	     22.57168983	      3.47408054	     -4.55165969	     -1.73257799	      3.98777666
      1.64000000	     -5.00204994	      0.38199086	     -6.05668967	     -0.93339903	      0.86983532	     -0.24148245	     37.10360443	     -8.88865666	      6.91334425	    -57.06623053	      6.58240779	      2.99510880	     -5.07376269	      0.71153357	     -3.51297180	     -7.62473666	     22.69992347	      3.27572762	     -4.79344673	     -1.24423519	      3.38589171
      1.65000000	     -4.97598297	     -0.04881232	     -5.68424800	     -0.92900278	      0.86989608	     -0.24210705	     37.20659107	     -8.49225423	      6.39622978	    -55.09439316	      6.39641891	      3.52695385	     -5.28799694	      0.27272982	     -3.22269916	     -7.87076111	     22.86744334	      3.08332811	     -5.02120079	     -0.76901886	      2.85571859
      1.66000000	     -4.94727595	     -0.46441000	     -5.36380567	     -0.92443199	      0.86983964	     -0.24255377	     37.19994346	     -8.07420687	      5.98663363	    -52.80087636	      6.11314142	      4.26455171	     -5.52240139	     -0.15299327	     -2.97190838	     -8.10826201	     23.05881108	      2.87396432	     -5.24633701	     -0.31353826	      2.38246292
      1.67000000	     -4.92460455	     -0.84375955	     -5.08749655	     -0.91968464	      0.86961447	     -0.24282815	     37.10760121	     -7.66241910	      5.68717441	    -50.22901501	      5.76300636	      5.09663112	     -5.76035080	     -0.54560911	     -2.75419978	     -8.35218611	     23.28054337	      2.66235193	     -5.45686891	      0.09632263	      1.96176673
      1.68000000	     -4.90449090	     -1.17924097	     -4.84058257	     -0.91478005	      0.86921120	     -0.24296235	     36.93173622	     -7.27626130	      5.49083442	    -47.41084147	      5.38623639	      5.97147227	     -5.99727637	     -0.89662040	     -2.55061799	     -8.61162922	     23.53178866	      2.44723568	     -5.66167542	      0.45289437	      1.59888183
      1.69000000	     -4.90229326	     -1.45744236	     -4.62322555	     -0.90968045	      0.86857978	     -0.24296436	     36.70888786	     -6.93344648	      5.39766782	    -44.40038669	      4.98785368	      6.85696786	     -6.23964270	     -1.19090516	     -2.36586705	     -8.84618429	     23.80339998	      2.22751762	     -5.83466733	      0.74726443	      1.25136356
      1.70000000	     -4.90325122	     -1.67575290	     -4.41705883	     -0.90440527	      0.86774061	     -0.24286868	     36.43081695	     -6.65313553	      5.38155639	    -41.23797239	      4.62041503	      7.65029503	     -6.47989438	     -1.42693296	     -2.18427644	     -9.09701656	     24.08690261	      2.01793707	     -5.99735338	      0.97321870	      0.93629776
      1.71000000	     -4.95059355	     -1.85314635	     -4.20977929	     -0.89894338	      0.86661640	     -0.24266958	     36.15273127	     -6.41650568	      5.42633868	    -37.97524084	      4.30644203	      8.15338773	     -6.67320490	     -1.63309486	     -2.01540517	     -9.36250394	     24.44179827	      1.85496720	     -6.09726996	      1.15805453	      0.60584759
      1.72000000	     -4.94296745	     -1.94425855	     -4.00580115	     -0.89328856	      0.86538127	     -0.24243538	     35.79583168	     -6.28770488	      5.54350137	    -34.66438800	      4.02834683	      8.82743481	     -6.94409804	     -1.74144957	     -1.81117162	     -9.60838705	     24.71845682	      1.66901878	     -6.25489190	      1.24424296	      0.32314634
      1.73000000	     -5.00192178	     -2.01535468	     -3.78988008	     -0.88741807	      0.86384373	     -0.24210608	     35.48372492	     -6.18659893	      5.70236793	    -31.35300940	      3.84595910	      9.20438126	     -7.14949214	     -1.84693130	     -1.61730269	     -9.86875648	     25.07965841	      1.54629458	     -6.32378852	      1.31712942	      0.00114103
      1.74000000	     -5.03722139	     -2.03398763	     -3.56496509	     -0.88134877	      0.86216804	     -0.24174298	     35.14892373	     -6.16088575	      5.89974869	    -28.09152166	      3.70654201	      9.56456261	     -7.39120202	     -1.89939892	     -1.39722123	    -10.12988032	     25.43272208	      1.45238675	     -6.41566245	      1.33475286	     -0.30662766
      1.75000000	     -5.12269238	     -2.05062384	     -3.33031814	     -0.87506275	      0.86025653	     -0.24129025	     34.86906433	     -6.15043277	      6.11285161	    -24.92024279	      3.65746899	      9.77142222	     -7.58379046	     -1.96720661	     -1.18162919	    -10.41503433	     25.82171357	      1.40988196	     -6.44056178	      1.35568209	     -0.61195316
      1.76000000	     -5.19251203	     -2.04704682	     -3.09056021	     -0.86857325	      0.85823153	     -0.24079090	     34.59546382	     -6.18036877	      6.33461182	    -21.88379219	      3.65781299	      9.97606488	     -7.80837191	     -2.02029702	     -0.96286209	    -10.70068187	     26.23114492	      1.40963379	     -6.48060600	      1.35820579	     -0.90529891
      1.77000000	     -5.28557873	     -2.03032063	     -2.85866905	     -0.86189424	      0.85604395	     -0.24022726	     34.38780084	     -6.23217597	      6.55243285	    -19.03171797	      3.70545765	     10.15659922	     -8.02159272	     -2.06821263	     -0.75966246	    -10.99443914	     26.65162509	      1.45150875	     -6.49113383	      1.35419724	     -1.17272369
      1.78000000	     -5.38264911	     -2.00669089	     -2.63532588	     -0.85503023	      0.85374096	     -0.23960181	     34.23682139	     -6.29856951	      6.73129359	    -16.40628585	      3.79051676	     10.35024489	     -8.25060910	     -2.11680685	     -0.58373827	    -11.28335073	     27.08512942	      1.53748398	     -6.49619803	      1.34877124	     -1.41621269
